#!OML:ASF G:\JayActor3\Patient Classification 1\Patient 1\Session 5\male.ASF
:FULLY-SPECIFIED
:DEGREES
839
root -1.55953 16.8837 -4.59405 -381.077 84.8497 -380.246
lowerback -0.589089 -0.171307 1.50665
upperback 1.25858 -0.230841 -0.940501
thorax 1.60985 -0.0877565 -1.81319
lowerneck -7.66187 0.359183 2.61948
upperneck 14.0754 0.116491 0.985673
head 5.50835 0.314826 -0.109357
rclavicle -1.15419e-014 3.18055e-015
rhumerus -32.8774 -5.40026 -87.7766
rradius 28.3191
rwrist 1.55071
rhand -18.0141 -7.77864
rfingers 7.12502
rthumb 8.25674 -37.5973
lclavicle -1.15419e-014 3.18055e-015
lhumerus -31.9372 4.27342 83.1431
lradius 26.4458
lwrist 17.1937
lhand -17.4584 14.2139
lfingers 7.12502
lthumb 8.79299 44.0107
rfemur 6.30756 4.47371 25.059
rtibia 39.384
rfoot -11.6206 -4.51304
rtoes -8.43866
lfemur -10.046 11.6588 -21.4344
ltibia 19.3618
lfoot -10.4315 -8.13932
ltoes 9.36628
840
root -1.64347 16.8844 -4.57839 -381.647 84.7804 -380.884
lowerback -0.596639 -0.144892 1.61979
upperback 1.24981 -0.197521 -0.936862
thorax 1.60627 -0.0698902 -1.87236
lowerneck -7.66822 0.35628 2.62398
upperneck 14.0381 0.110988 0.988282
head 5.49777 0.311711 -0.109729
rclavicle 1.1281e-014 1.98785e-015
rhumerus -32.8319 -5.31789 -87.8594
rradius 28.4172
rwrist 1.47204
rhand -18.0165 -7.80527
rfingers 7.12502
rthumb 8.25441 -37.624
lclavicle 1.1281e-014 1.98785e-015
lhumerus -31.8944 4.15685 83.1684
lradius 26.6943
lwrist 17.3197
lhand -17.4489 14.1705
lfingers 7.12502
lthumb 8.80217 43.9669
rfemur 6.91036 4.56838 25.3512
rtibia 37.874
rfoot -12.4766 -4.64711
rtoes -8.70037
lfemur -10.5438 11.5327 -21.3393
ltibia 19.5394
lfoot -10.1113 -7.89847
ltoes 9.54692
841
root -1.72863 16.8851 -4.56222 -382.344 84.7056 -381.656
lowerback -0.605085 -0.118005 1.74607
upperback 1.24174 -0.163841 -0.92988
thorax 1.60404 -0.0516979 -1.93547
lowerneck -7.68148 0.354637 2.63314
upperneck 14.0076 0.106336 0.990752
head 5.49054 0.309387 -0.110824
rclavicle 4.03781e-015 1.19271e-015
rhumerus -32.7831 -5.23009 -87.9466
rradius 28.5123
rwrist 1.39985
rhand -18.0196 -7.83277
rfingers 7.12502
rthumb 8.25145 -37.6516
lclavicle 4.03781e-015 1.19271e-015
lhumerus -31.8434 4.04941 83.1865
lradius 26.9346
lwrist 17.4392
lhand -17.4393 14.1247
lfingers 7.12502
lthumb 8.81143 43.9207
rfemur 7.48183 4.66885 25.663
rtibia 36.3792
rfoot -13.2633 -4.8041
rtoes -8.85621
lfemur -11.0533 11.3674 -21.2267
ltibia 19.7184
lfoot -9.76511 -7.5993
ltoes 9.72483
842
root -1.81505 16.8863 -4.54568 -383.167 84.6285 -382.561
lowerback -0.612631 -0.0919712 1.88491
upperback 1.2332 -0.131546 -0.919045
thorax 1.6009 -0.0340983 -2.00171
lowerneck -7.70046 0.354081 2.64403
upperneck 13.9838 0.102754 0.992905
head 5.48636 0.307787 -0.112205
rclavicle -1.73937e-016 4.77083e-015
rhumerus -32.7289 -5.14056 -88.0338
rradius 28.6011
rwrist 1.34348
rhand -18.0221 -7.85955
rfingers 7.12502
rthumb 8.249 -37.6785
lclavicle -1.73937e-016 4.77083e-015
lhumerus -31.7876 3.94828 83.1989
lradius 27.1703
lwrist 17.5558
lhand -17.4449 14.111
lfingers 7.12502
lthumb 8.80601 43.9073
rfemur 8.01347 4.7601 25.9854
rtibia 34.9263
rfoot -13.982 -4.98738
rtoes -8.91419
lfemur -11.5713 11.1564 -21.0966
ltibia 19.8923
lfoot -9.37917 -7.24419
ltoes 9.96838
843
root -1.90248 16.8882 -4.52886 -384.1 84.5424 -383.578
lowerback -0.618534 -0.0647094 2.03854
upperback 1.22685 -0.0978621 -0.904134
thorax 1.59929 -0.0156168 -2.07205
lowerneck -7.72661 0.355208 2.65868
upperneck 13.9663 0.100971 0.992863
head 5.48543 0.307231 -0.11474
rclavicle 1.65612e-014 7.55382e-015
rhumerus -32.671 -5.0481 -88.1219
rradius 28.6918
rwrist 1.29398
rhand -18.0248 -7.88779
rfingers 7.12502
rthumb 8.24643 -37.7068
lclavicle 1.65612e-014 7.55382e-015
lhumerus -31.7258 3.856 83.2049
lradius 27.4001
lwrist 17.6695
lhand -17.4515 14.1065
lfingers 7.12502
lthumb 8.79962 43.903
rfemur 8.50156 4.83442 26.3121
rtibia 33.536
rfoot -14.6376 -5.19388
rtoes -8.86479
lfemur -12.0888 10.9067 -20.9457
ltibia 20.0565
lfoot -8.94947 -6.83206
ltoes 10.2622
844
root -1.99127 16.8911 -4.51201 -385.138 84.437 -384.706
lowerback -0.617931 -0.0341573 2.21358
upperback 1.21816 -0.0600641 -0.883074
thorax 1.59203 0.00503072 -2.148
lowerneck -7.75159 0.357222 2.67418
upperneck 13.9494 0.100671 0.990438
head 5.48447 0.307285 -0.118058
rclavicle -4.72114e-016 6.75868e-015
rhumerus -32.6088 -4.95368 -88.207
rradius 28.7784
rwrist 1.25323
rhand -18.0275 -7.91515
rfingers 7.12502
rthumb 8.24384 -37.7343
lclavicle -4.72114e-016 6.75868e-015
lhumerus -31.6634 3.77425 83.2061
lradius 27.6262
lwrist 17.7814
lhand -17.4866 14.1595
lfingers 7.12502
lthumb 8.76577 43.9574
rfemur 8.93205 4.8889 26.6391
rtibia 32.2182
rfoot -15.2222 -5.41567
rtoes -8.7305
lfemur -12.6097 10.6284 -20.7691
ltibia 20.2102
lfoot -8.47202 -6.36517
ltoes 10.6018
845
root -2.08146 16.8949 -4.49501 -386.296 84.3172 -385.955
lowerback -0.608129 -0.00289937 2.4079
upperback 1.20945 -0.0214436 -0.855287
thorax 1.57987 0.0261974 -2.22786
lowerneck -7.77267 0.361096 2.68815
upperneck 13.9291 0.103339 0.987457
head 5.48181 0.308594 -0.121102
rclavicle 4.77083e-015 -1.19271e-015
rhumerus -32.5427 -4.85031 -88.2923
rradius 28.8634
rwrist 1.21487
rhand -18.0304 -7.94364
rfingers 7.12502
rthumb 8.24095 -37.7629
lclavicle 4.77083e-015 -1.19271e-015
lhumerus -31.5968 3.70282 83.2032
lradius 27.8429
lwrist 17.8889
lhand -17.5257 14.219
lfingers 7.12502
lthumb 8.72805 44.0186
rfemur 9.30767 4.92807 26.9695
rtibia 30.9698
rfoot -15.7384 -5.63837
rtoes -8.49648
lfemur -13.1313 10.3364 -20.5651
ltibia 20.3559
lfoot -7.95 -5.86105
ltoes 10.9517
